<?xml version="1.0" encoding="UTF-8" standalone="no"?>
<!-- Created with Inkscape (http://www.inkscape.org/) -->
<svg
   xmlns:svg="http://www.w3.org/2000/svg"
   xmlns="http://www.w3.org/2000/svg"
   xmlns:inkscape="http://www.inkscape.org/namespaces/inkscape"
   version="1.0"
   width="720"
   height="480"
   id="svg2">
  <defs
     id="defs4">
    <filter
       id="filter3443"
       x="-0.12513924"
       width="1.2502785"
       y="-0.32663372"
       height="1.6532674">
      <feGaussianBlur
         inkscape:collect="always"
         stdDeviation="1.9634296"
         id="feGaussianBlur3445" />
    </filter>
  </defs>
  <g
     id="layer1"
     style="display:inline">
    <rect
       width="720"
       height="300"
       x="0"
       y="180"
       id="rect2383"
       style="fill:#008000" />
    <rect
       width="720"
       height="180"
       x="0"
       y="0"
       id="rect2385"
       style="fill:#00ffff" />
  </g>
  <g
     id="layer3"
     style="display:inline">
    <g
       transform="translate(275.85402,238.18978)"
       id="g3365"
       style="display:inline">
      <g
         transform="translate(50.314786,-48.03655)"
         id="g3585">
        <path
           d="M 8.834607,155.98332 C 6.962593,156.58873 2.721021,155.34443 -0.060459,154.64906 C -2.416951,154.05994 -4.787821,155.8184 -5.842252,156.87283 C -7.25556,158.28614 -7.567646,161.09008 -7.176511,162.65462 C -6.34457,165.98239 -1.794162,165.75883 0.384295,165.32314 C 2.392063,164.92159 4.62858,166.60659 6.610841,167.10215 C 8.887167,167.67124 10.873758,167.99166 13.726894,167.99166 C 16.626703,167.99166 18.410847,169.43009 21.2877,167.99166 C 23.518788,166.87612 25.578411,167.21977 27.51425,165.76789 C 29.02661,164.63362 29.74065,162.64406 30.18277,160.87561 C 30.9666,157.74028 28.30614,157.26877 26.624739,156.42808 C 24.463742,155.34758 20.718371,156.01447 19.063933,156.42808 C 17.290653,156.8714 15.747907,154.20431 13.28214,154.20431 C 11.282792,154.20431 12.222725,155.98332 8.834607,155.98332 z"
           transform="matrix(1.0228021,0,0,1.0831048,-0.6864793,-13.604815)"
           id="path3480"
           style="fill:#000000;fill-opacity:0.72839505;fill-rule:evenodd;stroke:none;stroke-width:1px;stroke-linecap:butt;stroke-linejoin:miter;stroke-opacity:1;filter:url(#filter3443)" />
        <path
           d="M 7.8044813,155.70705 C 4.8563207,156.28685 1.2814487,156.57617 -1.2215741,158.39782 C -1.7787121,159.06568 -1.8418196,159.44504 -1.8022753,160.26751 C -1.5819891,160.97727 -0.79787931,161.31888 -0.61552771,162.0488 C 1.9393062,162.28754 4.2312694,163.46536 6.8993076,162.60569 C 9.7016087,162.64152 12.534033,162.27832 14.854313,160.58966 C 15.390403,159.00158 14.814981,156.84835 14.690209,155.08833 C 12.105793,155.90104 10.405421,156.38809 7.8044813,155.70705 z"
           id="path3482"
           style="fill:#e6e6e6;fill-rule:evenodd;stroke:#333333;stroke-width:1px;stroke-linecap:butt;stroke-linejoin:miter;stroke-opacity:1" />
        <path
           d="M -1.2342461,160.82971 C 1.7840737,160.313 4.8894674,161.67632 8.0321832,161.25521 C 10.950552,161.1586 12.464959,159.74329 14.608157,159.60435"
           id="path3484"
           style="fill:none;fill-rule:evenodd;stroke:#333333;stroke-width:1px;stroke-linecap:butt;stroke-linejoin:miter;stroke-opacity:1" />
        <path
           d="M 17.606387,156.55326 C 15.257243,157.8093 11.10278,157.47991 8.7824533,159.44013 C 8.3861327,160.27523 8.4021972,161.24066 8.2901404,162.14974 C 8.4239355,163.35163 8.9538891,163.2277 9.8364583,163.97547 C 12.219104,164.89782 15.052781,165.06226 17.479982,164.61303 C 19.61013,164.53826 22.122043,164.04956 23.605743,162.42424 C 25.898521,160.2785 25.160498,159.39016 24.921382,156.40161 C 22.159105,156.61107 20.37596,156.55326 17.606387,156.55326 z"
           id="path3486"
           style="fill:#e6e6e6;fill-rule:evenodd;stroke:#333333;stroke-width:1px;stroke-linecap:butt;stroke-linejoin:miter;stroke-opacity:1" />
        <path
           d="M 0.69971972,118.38158 C -0.0071701885,119.48473 0.81369981,121.85725 0.87848407,123.11519 C 0.60714154,125.70641 1.9753062,128.90807 1.1730626,131.41301 C 0.58712789,134.97279 -1.2198452,134.182 -2.5137622,135.07523 C -3.9207347,135.1376 -4.8196606,134.9129 -5.1737048,136.11178 C -4.3512722,136.94258 -2.9881783,136.47064 -1.8531443,136.38876 C -1.5156696,137.65265 -4.0459095,139.42488 -4.1651942,140.92633 C -3.2655279,141.64926 -1.1342028,139.63303 -1.0321338,138.13944 C -0.83592434,139.57636 -1.6380546,141.91421 -1.4962909,142.90037 C -0.468504,143.55902 0.76744934,139.54828 0.8065732,137.9253 C 0.7691733,139.69358 0.13820124,142.02785 2.2169659,141.97141 C 2.768486,141.79491 2.5536069,139.52414 2.743398,137.8891 C 3.3041174,135.31199 5.0966904,132.30861 5.3500264,129.66267 C 5.0693125,125.77852 6.9315619,120.95438 5.2339871,117.35392 C 2.7369027,116.10062 2.5546131,117.36202 0.69971972,118.38158 z"
           id="path3488"
           style="fill:#ffe6d5;fill-opacity:1;fill-rule:evenodd;stroke:#3f2d10;stroke-width:1px;stroke-linecap:butt;stroke-linejoin:miter;stroke-opacity:1" />
        <path
           d="M 6.2130959,104.52991 C 3.7076325,107.1268 2.2266984,109.4531 1.149258,112.84482 C -0.19604012,115.23816 -0.8241578,116.4936 -1.1225941,119.27674 C 2.5600376,119.97211 5.2259185,119.30407 8.8778694,119.80615 C 10.549418,115.36494 10.388713,111.92947 10.479808,107.25074"
           id="path3490"
           style="fill:#ff9fec;fill-opacity:1;fill-rule:evenodd;stroke:#42002a;stroke-width:1px;stroke-linecap:butt;stroke-linejoin:miter;stroke-opacity:1" />
        <path
           d="M 16.837915,135.0042 C 16.940785,137.22265 17.203798,139.24006 17.219119,141.44627 C 17.700625,143.81077 17.335631,146.16302 17.169252,148.50187 C 17.647416,150.55372 16.688864,155.47457 18.092132,156.91623 C 20.533591,158.76279 23.395276,158.3229 24.7508,155.98208 C 24.51848,155.05216 25.137201,153.26021 24.728585,152.30611 C 23.534699,149.76155 24.100144,146.85858 24.496504,144.1777 C 24.550086,140.65607 25.208914,137.25132 25.076703,133.72687 C 23.064702,132.9829 18.107922,133.52149 16.837915,135.0042 z"
           id="path3492"
           style="fill:#00325c;fill-opacity:1;fill-rule:evenodd;stroke:#00192e;stroke-width:1px;stroke-linecap:butt;stroke-linejoin:miter;stroke-opacity:1" />
        <path
           d="M 7.2175259,134.7113 C 7.0827681,135.43499 6.8336142,137.31412 7.0792712,138.54326 C 7.9550958,141.13978 8.3414653,144.0073 7.6925542,146.64915 C 7.7073404,149.24064 6.2641416,154.36501 8.1181892,156.26978 C 10.759775,157.31673 12.35478,158.24913 14.600082,155.95435 C 13.443838,152.37619 13.618039,147.7882 14.169011,144.06157 C 14.195822,140.53108 14.882333,137.15961 14.749208,133.61075 C 12.737206,132.86678 8.4875331,133.22859 7.2175259,134.7113 z"
           id="path3494"
           style="fill:#00325c;fill-opacity:1;fill-rule:evenodd;stroke:#00192e;stroke-width:1px;stroke-linecap:butt;stroke-linejoin:miter;stroke-opacity:1" />
        <path
           d="M 29.259355,136.43189 C 26.655331,133.21652 28.823992,129.90079 29.156124,126.21842 C 28.016034,121.61351 30.977245,116.69898 29.999971,112.0956 C 29.56759,109.21046 28.610805,106.61272 27.162133,104.09698 C 25.50577,101.85533 23.29365,100.57989 20.481925,100.43607 C 16.874542,100.96482 13.233111,100.4776 9.6510397,101.25716 C 7.0078563,102.40804 5.1861724,104.31442 4.8920147,107.16903 C 6.2766371,109.57788 3.1750596,114.65268 0.49328439,117.14466 C 0.34356557,118.8673 2.2186978,120.87264 3.9368575,121.00927 C 4.9423257,123.10141 4.5052526,124.0809 4.844554,126.50029 C 5.6749023,131.32474 3.730923,133.05497 4.2650722,137.86657 C 8.4256641,135.48304 11.443111,138.07598 16.167147,137.54678 C 20.129314,136.12935 26.801206,139.43838 29.259355,136.43189 z"
           id="path3496"
           style="fill:#ff9fec;fill-opacity:1;fill-rule:evenodd;stroke:#42002a;stroke-width:1px;stroke-linecap:butt;stroke-linejoin:miter;stroke-opacity:1" />
        <path
           d="M 31.120381,127.9475 C 30.758702,130.91455 29.517573,133.66872 28.942067,136.98712 C 27.430163,139.39323 25.00907,136.73956 24.380465,137.9072 C 24.682327,139.21877 26.073836,139.67946 27.29041,140.00625 C 26.751096,141.60996 25.985289,142.56134 26.353135,144.99054 C 27.476943,144.41351 28.500906,141.99127 28.807881,140.84641 C 28.935125,142.18097 28.684674,145.3321 30.066392,144.87442 C 30.096088,144.33648 30.752942,142.43935 30.825128,141.08719 C 31.798502,142.59234 31.466812,145.79263 32.752992,143.18589 C 32.882287,142.0171 32.881356,140.45451 32.271138,139.53289 C 32.112359,138.35481 31.721639,137.93249 31.922795,136.74566 C 33.402064,134.24291 34.633614,130.64386 35.056081,127.80474 C 33.808999,124.21481 32.776703,120.33116 31.708638,117.33616 C 23.116614,115.84094 28.032289,115.91204 26.853135,118.33719 C 27.16402,121.05652 28.812668,126.07206 31.120381,127.9475 z"
           id="path3498"
           style="fill:#ffe6d5;fill-opacity:1;fill-rule:evenodd;stroke:#3f2d10;stroke-width:1px;stroke-linecap:butt;stroke-linejoin:miter;stroke-opacity:1" />
        <path
           d="M 22.102654,108.27018 C 22.222093,110.63048 23.003472,112.7322 23.767092,114.94065 C 24.38394,117.20258 24.438196,118.0713 24.462614,120.40034 C 28.365656,119.98561 30.668339,118.90728 34.567221,117.67847 C 33.785072,113.97367 31.264657,110.81536 29.417495,107.5655 C 28.046347,105.64613 26.11969,105.42695 23.775446,106.11815"
           id="path3500"
           style="fill:#ff9fec;fill-opacity:1;fill-rule:evenodd;stroke:#42002a;stroke-width:1px;stroke-linecap:butt;stroke-linejoin:miter;stroke-opacity:1" />
        <path
           d="M 9.0118026,103.20376 C 10.625873,107.46258 18.621823,106.05867 21.456161,102.00613 C 18.032003,100.39272 18.723888,96.411881 16.251173,95.205308 C 14.146906,94.964892 14.225905,94.843294 12.222412,95.427163 C 10.897281,96.72253 11.71313,101.969 9.0118026,103.20376 z"
           id="path3508"
           style="fill:#ffe6d5;fill-opacity:1;fill-rule:evenodd;stroke:#3f2d10;stroke-width:1px;stroke-linecap:butt;stroke-linejoin:miter;stroke-opacity:1" />
        <path
           d="M 15.285281,60.185934 C 5.1597882,60.12662 0.44718812,66.27855 0.31207812,74.970131 C 0.31207812,76.788335 2.1245533,81.073842 2.5750083,82.876079 C 2.3653261,86.424724 1.2211635,88.929442 2.2682839,92.393358 C 3.4860385,97.293886 6.7769365,99.9024 11.517203,100.95916 C 15.725204,100.87651 18.728872,98.916749 21.882544,95.974613 C 26.398078,92.278871 28.818219,86.553873 30.479362,81.086496 C 31.06981,75.864038 27.564369,70.793459 26.081556,65.922293 C 24.016616,60.591876 20.334415,59.439861 15.285281,60.185934 z"
           id="path3502"
           style="fill:#ffe6d5;fill-opacity:1;fill-rule:evenodd;stroke:#3f2d10;stroke-width:0.99999994px;stroke-linecap:butt;stroke-linejoin:miter;stroke-opacity:1" />
        <path
           d="M 9.834921,77.384705 C 8.7182698,79.802968 9.5822874,81.220892 11.973606,80.871367 C 12.708186,81.190425 14.238653,79.422671 13.887374,78.250255 C 14.150262,75.101575 11.38345,75.033229 9.834921,77.384705 z"
           id="path3512"
           style="fill:#ffffff;fill-rule:evenodd;stroke:#333333;stroke-width:0.99999994px;stroke-linecap:butt;stroke-linejoin:miter;stroke-opacity:1" />
        <path
           d="M 3.4653789,76.243446 C 1.541203,76.669742 0.6381858,78.11957 1.0128674,80.275925 C 3.2343188,84.322859 7.4589258,78.500179 3.4653789,76.243446 z"
           id="path3514"
           style="fill:#ffffff;fill-rule:evenodd;stroke:#333333;stroke-width:0.99999994px;stroke-linecap:butt;stroke-linejoin:miter;stroke-opacity:1" />
        <path
           d="M 6.1082759,80.932584 C 5.7056316,83.268692 4.1948462,83.356204 2.9827363,84.535857 C 3.7849165,86.238973 6.4420489,86.729645 6.796046,86.059025"
           id="path3516"
           style="fill:#ffe6d5;fill-opacity:1;fill-rule:evenodd;stroke:#3f2d10;stroke-width:0.99999994px;stroke-linecap:butt;stroke-linejoin:miter;stroke-opacity:1" />
        <path
           d="M 11.132236,77.679977 C 11.448231,77.392341 9.5977753,76.855602 9.7016047,78.486473 C 9.7820814,79.750533 11.330783,80.051509 11.847552,79.696217 C 12.885464,78.982624 11.632857,77.427783 11.132236,77.679977 z"
           id="path3524"
           style="fill:#000000;fill-rule:evenodd;stroke:#000000;stroke-width:0.99999994px;stroke-linecap:butt;stroke-linejoin:miter;stroke-opacity:1" />
        <path
           d="M 2.3340493,78.127247 C 2.7079265,77.362116 0.55420941,77.9759 1.1077936,79.740239 C 1.489845,80.957882 2.8447415,80.208761 2.9471772,80.143487 C 4.320868,79.268146 3.2100095,77.036668 2.3340493,78.127247 z"
           id="path3526"
           style="fill:#000000;fill-rule:evenodd;stroke:#000000;stroke-width:0.99999994px;stroke-linecap:butt;stroke-linejoin:miter;stroke-opacity:1" />
        <path
           d="M 8.8581696,162.16279 C 11.762224,162.78599 15.090454,163.72709 17.342122,162.83544 C 20.048639,162.47695 22.551044,161.82691 25.041453,159.16241"
           id="path3536"
           style="fill:none;fill-rule:evenodd;stroke:#333333;stroke-width:1px;stroke-linecap:butt;stroke-linejoin:miter;stroke-opacity:1" />
        <path
           d="M 4.8247475,73.638487 C 9.168229,73.25401 15.536302,73.09031 19.369611,73.019769 C 19.555749,72.275218 20.074279,71.261758 20.253495,70.544895 C 19.722642,74.250484 20.905375,77.787756 21.667708,81.328274 C 22.405631,84.927561 20.752824,88.21323 19.07932,92.41971 C 22.030454,93.715242 29.624935,93.392311 34.012825,92.038428 C 30.950606,86.629631 32.208256,82.632501 32.804641,79.030177 C 34.209052,68.851603 31.351344,63.398951 23.435475,56.93309 C 19.075089,55.6224 15.766197,55.086245 11.326272,55.960818 C 4.2989312,57.133002 1.0099856,59.940174 -1.1364854,66.479031 C -2.1963985,69.396967 -2.0203689,72.351601 -2.0203689,75.317866 C 0.51786615,74.19535 2.1362181,74.509534 4.8247475,73.638487 z"
           id="path3567"
           style="fill:#300000;fill-opacity:1;fill-rule:evenodd;stroke:#000000;stroke-width:1px;stroke-linecap:butt;stroke-linejoin:miter;stroke-opacity:1" />
        <path
           d="M 4.5203689,93.967807 C 4.9326091,93.921499 5.470006,92.990414 5.9345825,92.641982 C 6.5432581,92.545604 7.293937,94.695599 8.5862329,92.818759 C 9.540036,93.716566 10.44195,94.142696 11.679825,94.056196 C 10.668454,96.304778 4.7989479,95.825274 4.5203689,93.967807 z"
           id="path3571"
           style="fill:#d40000;fill-opacity:1;fill-rule:evenodd;stroke:#560505;stroke-width:1px;stroke-linecap:butt;stroke-linejoin:miter;stroke-opacity:1" />
        <path
           d="M 10.119329,122.01426 C 7.8165721,121.81587 0.54899319,119.30539 3.6011163,116.18186 C 6.0193938,114.71223 11.638613,117.72304 11.856934,118.90363 C 12.07524,120.08419 10.229504,122.07328 10.119329,122.01426 z"
           id="path3201"
           style="fill:#ffffff;fill-rule:evenodd;stroke:#808080;stroke-width:1px;stroke-linecap:butt;stroke-linejoin:miter;stroke-opacity:1" />
        <path
           d="M 3.875,121 C 8.3266073,121.85893 8.4947394,118.80261 8.5,118.75"
           id="path3573"
           style="fill:none;fill-opacity:1;fill-rule:evenodd;stroke:#42002a;stroke-width:1px;stroke-linecap:butt;stroke-linejoin:miter;stroke-opacity:1" />
        <path
           d="M 10.618353,119.2182 C 10.449563,116.91308 11.777449,109.33966 15.344913,111.85861 C 17.178949,114.01363 15.096004,120.03874 13.964906,120.44127 C 12.833808,120.84379 10.577511,119.33634 10.618353,119.2182 z"
           id="path3193"
           style="fill:#ffffff;fill-rule:evenodd;stroke:#808080;stroke-width:1px;stroke-linecap:butt;stroke-linejoin:miter;stroke-opacity:1" />
        <path
           d="M 13.214599,119.60109 C 14.842286,117.96015 21.426124,113.9886 21.868875,118.33324 C 21.447859,121.13156 15.53596,123.51695 14.48965,122.92818 C 13.443341,122.33941 13.09868,119.64786 13.214599,119.60109 z"
           id="path3195"
           style="fill:#ffffff;fill-rule:evenodd;stroke:#808080;stroke-width:1px;stroke-linecap:butt;stroke-linejoin:miter;stroke-opacity:1" />
        <path
           d="M 14.631494,122.35822 C 16.699439,123.39053 22.532141,128.40049 18.544376,130.18084 C 15.754882,130.65684 11.638955,125.7886 11.870655,124.61057 C 12.102353,123.43256 14.55079,122.26278 14.631494,122.35822 z"
           id="path3197"
           style="fill:#ffffff;fill-rule:evenodd;stroke:#808080;stroke-width:1px;stroke-linecap:butt;stroke-linejoin:miter;stroke-opacity:1" />
        <path
           d="M 12.658185,123.31855 C 11.845475,125.48224 7.4661717,131.8022 5.2826098,128.02014 C 4.520425,125.2949 8.9364732,120.69717 10.132159,120.80568 C 11.327824,120.9142 12.744759,123.2284 12.658185,123.31855 z"
           id="path3199"
           style="fill:#ffffff;fill-rule:evenodd;stroke:#808080;stroke-width:1px;stroke-linecap:butt;stroke-linejoin:miter;stroke-opacity:1" />
        <path
           d="M 12.253882,118.22405 C 12.253882,118.22405 11.114386,117.09905 9.7738021,118.91155 C 8.4332185,120.72405 10.846269,125.66155 12.991203,124.84905 C 15.136137,124.03655 16.275633,118.59905 12.253882,118.22405 z"
           id="path3191"
           style="fill:#ffff00;fill-rule:evenodd;stroke:#d07f1d;stroke-width:1px;stroke-linecap:butt;stroke-linejoin:miter;stroke-opacity:1" />
        <path
           d="M 13.125,121.875 C 14.487264,124.43395 20.794428,125.24417 22.390165,121.04289"
           id="path3575"
           style="fill:none;fill-opacity:1;fill-rule:evenodd;stroke:#42002a;stroke-width:1px;stroke-linecap:butt;stroke-linejoin:miter;stroke-opacity:1" />
        <path
           d="M 15.536612,77.579505 C 15.134649,84.830852 8.5053734,83.018546 7.75,79.25 C 7.75,78.379398 7.1042954,78.713388 6.3232233,78.713388 C 6.5476528,84.413249 -0.84446958,84.103245 -0.875,78.875 C -1.130185,74.44484 6.4550692,73.707747 6.4053301,78.539214 C 7.277681,79.369923 6.9444848,79.14695 7.8295049,78.554379 C 8.4741749,73.139907 14.547756,72.970341 15.5,77.375 C 17.036645,77.447256 18.528579,77.086141 20,76.75"
           id="path3583"
           style="fill:none;fill-rule:evenodd;stroke:#000000;stroke-width:1px;stroke-linecap:butt;stroke-linejoin:miter;stroke-opacity:1" />
      </g>
    </g>
  </g>
  <g
     id="layer2"
     style="display:inline">
    <g
       transform="translate(83.211679,2.6277372)"
       id="g3190">
      <path
         d="M 591.48388,68.516129 A 27.870968,28.258064 0 1 1 535.74195,68.516129 A 27.870968,28.258064 0 1 1 591.48388,68.516129 z"
         id="path2392"
         style="fill:#ffff00" />
      <path
         d="M 529.54838,69.677419 C 496.25806,69.677419 491.6129,70.451613 491.6129,70.451613"
         id="path2398"
         style="fill:#ffff00;fill-rule:evenodd;stroke:#ffff00;stroke-width:2.95700002;stroke-linecap:butt;stroke-linejoin:miter;stroke-miterlimit:4;stroke-dasharray:5.91400003, 2.95700002;stroke-dashoffset:14.78500009;stroke-opacity:1" />
      <path
         d="M 635.22581,67.741939 C 601.93549,67.741939 597.29033,68.516129 597.29033,68.516129"
         id="path3176"
         style="fill:#ffff00;fill-rule:evenodd;stroke:#ffff00;stroke-width:2.95700002;stroke-linecap:butt;stroke-linejoin:miter;stroke-miterlimit:4;stroke-dasharray:5.91400003, 2.95700002;stroke-dashoffset:14.78500009;stroke-opacity:1" />
      <path
         d="M 563.99999,139.74192 C 563.99999,106.4516 563.22581,101.80645 563.22581,101.80645"
         id="path3178"
         style="fill:#ffff00;fill-rule:evenodd;stroke:#ffff00;stroke-width:2.95700002;stroke-linecap:butt;stroke-linejoin:miter;stroke-miterlimit:4;stroke-dasharray:5.91400003, 2.95700002;stroke-dashoffset:14.78500009;stroke-opacity:1" />
      <path
         d="M 564.77418,37.548384 C 564.77418,4.2580602 564,-0.38708981 564,-0.38708981"
         id="path3180"
         style="fill:#ffff00;fill-rule:evenodd;stroke:#ffff00;stroke-width:2.95700002;stroke-linecap:butt;stroke-linejoin:miter;stroke-miterlimit:4;stroke-dasharray:5.91400003, 2.95700002;stroke-dashoffset:14.78500009;stroke-opacity:1" />
      <path
         d="M 614.46012,119.20302 C 590.92031,95.663204 587.08826,92.926015 587.08826,92.926015"
         id="path3182"
         style="fill:#ffff00;fill-rule:evenodd;stroke:#ffff00;stroke-width:2.95700002;stroke-linecap:butt;stroke-linejoin:miter;stroke-miterlimit:4;stroke-dasharray:5.91400003, 2.95700002;stroke-dashoffset:14.78500009;stroke-opacity:1" />
      <path
         d="M 536.26658,44.106248 C 512.72677,20.566428 508.89472,17.829238 508.89472,17.829238"
         id="path3184"
         style="fill:#ffff00;fill-rule:evenodd;stroke:#ffff00;stroke-width:2.95700002;stroke-linecap:butt;stroke-linejoin:miter;stroke-miterlimit:4;stroke-dasharray:5.91400003, 2.95700002;stroke-dashoffset:14.78500009;stroke-opacity:1" />
      <path
         d="M 512.53892,122.07302 C 536.07874,98.533212 538.81592,94.701162 538.81592,94.701162"
         id="path3186"
         style="fill:#ffff00;fill-rule:evenodd;stroke:#ffff00;stroke-width:2.95700002;stroke-linecap:butt;stroke-linejoin:miter;stroke-miterlimit:4;stroke-dasharray:5.91400003, 2.95700002;stroke-dashoffset:14.78500009;stroke-opacity:1" />
      <path
         d="M 590.73247,43.879481 C 614.27229,20.339671 617.00947,16.507619 617.00947,16.507619"
         id="path3188"
         style="fill:#ffff00;fill-rule:evenodd;stroke:#ffff00;stroke-width:2.95700002;stroke-linecap:butt;stroke-linejoin:miter;stroke-miterlimit:4;stroke-dasharray:5.91400003, 2.95700002;stroke-dashoffset:14.78500009;stroke-opacity:1" />
    </g>
  </g>
</svg>
